<mxfile host="app.diagrams.net" modified="2023-11-25T11:44:32.562Z" agent="Mozilla/5.0 (Windows NT 10.0; Win64; x64) AppleWebKit/537.36 (KHTML, like Gecko) Chrome/119.0.0.0 Safari/537.36" etag="qFJG5B7nKtQNv24xJBRn" version="22.1.4" type="device">
  <diagram name="Страница-1" id="K6ROVgI0PcMtZZxKwsHb">
    <mxGraphModel dx="2327" dy="757" grid="0" gridSize="10" guides="1" tooltips="1" connect="1" arrows="1" fold="1" page="1" pageScale="1" pageWidth="827" pageHeight="1169" math="0" shadow="0">
      <root>
        <mxCell id="0" />
        <mxCell id="1" parent="0" />
        <mxCell id="XZoQZrsDG4vRprca0sCM-1" value="Account" style="rounded=0;whiteSpace=wrap;html=1;fillColor=#1ba1e2;fontColor=#000000;strokeColor=#000000;fontStyle=1;labelBackgroundColor=none;" parent="1" vertex="1">
          <mxGeometry x="350" y="350" width="120" height="60" as="geometry" />
        </mxCell>
        <mxCell id="XZoQZrsDG4vRprca0sCM-2" value="User ID" style="ellipse;whiteSpace=wrap;html=1;fillColor=#f0a30a;fontColor=#000000;strokeColor=#000000;fontStyle=5" parent="1" vertex="1">
          <mxGeometry x="365" y="220" width="90" height="60" as="geometry" />
        </mxCell>
        <mxCell id="XZoQZrsDG4vRprca0sCM-5" value="First Name" style="ellipse;whiteSpace=wrap;html=1;fontStyle=1;fillColor=#f0a30a;fontColor=#000000;strokeColor=#000000;" parent="1" vertex="1">
          <mxGeometry x="176" y="350" width="90" height="60" as="geometry" />
        </mxCell>
        <mxCell id="XZoQZrsDG4vRprca0sCM-7" value="Last Name" style="ellipse;whiteSpace=wrap;html=1;fontStyle=1;fillColor=#f0a30a;fontColor=#000000;strokeColor=#000000;" parent="1" vertex="1">
          <mxGeometry x="230" y="260" width="90" height="60" as="geometry" />
        </mxCell>
        <mxCell id="XZoQZrsDG4vRprca0sCM-9" value="Email" style="ellipse;whiteSpace=wrap;html=1;fillColor=#f0a30a;fontColor=#000000;strokeColor=#000000;fontStyle=1" parent="1" vertex="1">
          <mxGeometry x="500" y="258" width="90" height="60" as="geometry" />
        </mxCell>
        <mxCell id="XZoQZrsDG4vRprca0sCM-13" value="" style="endArrow=none;html=1;rounded=0;entryX=0.5;entryY=1;entryDx=0;entryDy=0;exitX=0.5;exitY=0;exitDx=0;exitDy=0;" parent="1" source="XZoQZrsDG4vRprca0sCM-1" target="XZoQZrsDG4vRprca0sCM-2" edge="1">
          <mxGeometry width="50" height="50" relative="1" as="geometry">
            <mxPoint x="380" y="400" as="sourcePoint" />
            <mxPoint x="430" y="350" as="targetPoint" />
          </mxGeometry>
        </mxCell>
        <mxCell id="XZoQZrsDG4vRprca0sCM-14" value="" style="endArrow=none;html=1;rounded=0;exitX=1;exitY=0.5;exitDx=0;exitDy=0;entryX=0;entryY=0.5;entryDx=0;entryDy=0;" parent="1" source="XZoQZrsDG4vRprca0sCM-5" target="XZoQZrsDG4vRprca0sCM-1" edge="1">
          <mxGeometry width="50" height="50" relative="1" as="geometry">
            <mxPoint x="360" y="400" as="sourcePoint" />
            <mxPoint x="410" y="350" as="targetPoint" />
          </mxGeometry>
        </mxCell>
        <mxCell id="XZoQZrsDG4vRprca0sCM-15" value="" style="endArrow=none;html=1;rounded=0;entryX=1;entryY=1;entryDx=0;entryDy=0;exitX=0;exitY=0;exitDx=0;exitDy=0;" parent="1" source="XZoQZrsDG4vRprca0sCM-1" target="XZoQZrsDG4vRprca0sCM-7" edge="1">
          <mxGeometry width="50" height="50" relative="1" as="geometry">
            <mxPoint x="360" y="400" as="sourcePoint" />
            <mxPoint x="410" y="350" as="targetPoint" />
          </mxGeometry>
        </mxCell>
        <mxCell id="XZoQZrsDG4vRprca0sCM-16" value="" style="endArrow=none;html=1;rounded=0;entryX=0;entryY=1;entryDx=0;entryDy=0;exitX=1;exitY=0;exitDx=0;exitDy=0;" parent="1" source="XZoQZrsDG4vRprca0sCM-1" target="XZoQZrsDG4vRprca0sCM-9" edge="1">
          <mxGeometry width="50" height="50" relative="1" as="geometry">
            <mxPoint x="360" y="550" as="sourcePoint" />
            <mxPoint x="410" y="500" as="targetPoint" />
          </mxGeometry>
        </mxCell>
        <mxCell id="XZoQZrsDG4vRprca0sCM-23" value="" style="group" parent="1" vertex="1" connectable="0">
          <mxGeometry x="350" y="561" width="120" height="60" as="geometry" />
        </mxCell>
        <mxCell id="XZoQZrsDG4vRprca0sCM-20" value="" style="rounded=0;whiteSpace=wrap;html=1;fillColor=#1ba1e2;fontColor=#ffffff;strokeColor=#000000;" parent="XZoQZrsDG4vRprca0sCM-23" vertex="1">
          <mxGeometry width="120" height="60" as="geometry" />
        </mxCell>
        <mxCell id="XZoQZrsDG4vRprca0sCM-21" value="Channel" style="rounded=0;whiteSpace=wrap;html=1;fillColor=#1ba1e2;fontColor=#000000;strokeColor=#000000;labelBackgroundColor=none;fontStyle=1" parent="XZoQZrsDG4vRprca0sCM-23" vertex="1">
          <mxGeometry x="5" y="5" width="110" height="50" as="geometry" />
        </mxCell>
        <mxCell id="XZoQZrsDG4vRprca0sCM-25" value="" style="group" parent="1" vertex="1" connectable="0">
          <mxGeometry x="360" y="461" width="100" height="60" as="geometry" />
        </mxCell>
        <mxCell id="XZoQZrsDG4vRprca0sCM-22" value="" style="html=1;whiteSpace=wrap;aspect=fixed;shape=isoRectangle;fillColor=#60a917;fontColor=#ffffff;strokeColor=#000000;" parent="XZoQZrsDG4vRprca0sCM-25" vertex="1">
          <mxGeometry width="100" height="60" as="geometry" />
        </mxCell>
        <mxCell id="XZoQZrsDG4vRprca0sCM-24" value="&lt;font color=&quot;#000000&quot;&gt;&lt;b&gt;Has&lt;/b&gt;&lt;/font&gt;" style="html=1;whiteSpace=wrap;aspect=fixed;shape=isoRectangle;fillColor=#60a917;fontColor=#ffffff;strokeColor=#000000;" parent="XZoQZrsDG4vRprca0sCM-25" vertex="1">
          <mxGeometry x="7.509999999999991" y="4.5" width="84.98" height="51" as="geometry" />
        </mxCell>
        <mxCell id="XZoQZrsDG4vRprca0sCM-27" value="" style="endArrow=none;html=1;rounded=0;entryX=0.5;entryY=1;entryDx=0;entryDy=0;exitX=0.502;exitY=-0.023;exitDx=0;exitDy=0;exitPerimeter=0;" parent="1" edge="1">
          <mxGeometry width="50" height="50" relative="1" as="geometry">
            <mxPoint x="410.04995999999994" y="464.327" as="sourcePoint" />
            <mxPoint x="409.88" y="410" as="targetPoint" />
          </mxGeometry>
        </mxCell>
        <mxCell id="XZoQZrsDG4vRprca0sCM-28" value="" style="endArrow=none;html=1;rounded=0;entryX=0.479;entryY=0.967;entryDx=0;entryDy=0;entryPerimeter=0;exitX=0.487;exitY=-0.002;exitDx=0;exitDy=0;exitPerimeter=0;" parent="1" source="XZoQZrsDG4vRprca0sCM-20" target="XZoQZrsDG4vRprca0sCM-22" edge="1">
          <mxGeometry width="50" height="50" relative="1" as="geometry">
            <mxPoint x="471" y="473" as="sourcePoint" />
            <mxPoint x="521" y="423" as="targetPoint" />
          </mxGeometry>
        </mxCell>
        <mxCell id="XZoQZrsDG4vRprca0sCM-29" value="" style="endArrow=none;html=1;rounded=0;entryX=0.529;entryY=0.96;entryDx=0;entryDy=0;entryPerimeter=0;exitX=0.529;exitY=-0.002;exitDx=0;exitDy=0;exitPerimeter=0;" parent="1" source="XZoQZrsDG4vRprca0sCM-20" target="XZoQZrsDG4vRprca0sCM-22" edge="1">
          <mxGeometry width="50" height="50" relative="1" as="geometry">
            <mxPoint x="471" y="473" as="sourcePoint" />
            <mxPoint x="429" y="533" as="targetPoint" />
          </mxGeometry>
        </mxCell>
        <mxCell id="XZoQZrsDG4vRprca0sCM-30" value="1" style="text;html=1;strokeColor=none;fillColor=none;align=center;verticalAlign=middle;whiteSpace=wrap;rounded=0;" parent="1" vertex="1">
          <mxGeometry x="406" y="408" width="26" height="30" as="geometry" />
        </mxCell>
        <mxCell id="XZoQZrsDG4vRprca0sCM-31" value="N" style="text;html=1;strokeColor=none;fillColor=none;align=center;verticalAlign=middle;whiteSpace=wrap;rounded=0;" parent="1" vertex="1">
          <mxGeometry x="410" y="535" width="27" height="30" as="geometry" />
        </mxCell>
        <mxCell id="XZoQZrsDG4vRprca0sCM-35" value="" style="group" parent="1" vertex="1" connectable="0">
          <mxGeometry x="515" y="337" width="90" height="60" as="geometry" />
        </mxCell>
        <mxCell id="XZoQZrsDG4vRprca0sCM-32" value="Channel ID" style="ellipse;whiteSpace=wrap;html=1;fillColor=#f0a30a;fontColor=#000000;strokeColor=#000000;fontStyle=1;" parent="XZoQZrsDG4vRprca0sCM-35" vertex="1">
          <mxGeometry width="90" height="60" as="geometry" />
        </mxCell>
        <mxCell id="XZoQZrsDG4vRprca0sCM-34" value="" style="endArrow=none;dashed=1;html=1;rounded=0;" parent="XZoQZrsDG4vRprca0sCM-35" edge="1">
          <mxGeometry width="50" height="50" relative="1" as="geometry">
            <mxPoint x="11" y="37" as="sourcePoint" />
            <mxPoint x="79" y="37" as="targetPoint" />
          </mxGeometry>
        </mxCell>
        <mxCell id="XZoQZrsDG4vRprca0sCM-36" value="" style="endArrow=none;html=1;exitX=0.766;exitY=0;exitDx=0;exitDy=0;entryX=0;entryY=0.5;entryDx=0;entryDy=0;rounded=0;exitPerimeter=0;" parent="1" source="XZoQZrsDG4vRprca0sCM-20" target="XZoQZrsDG4vRprca0sCM-32" edge="1">
          <mxGeometry width="50" height="50" relative="1" as="geometry">
            <mxPoint x="541" y="623" as="sourcePoint" />
            <mxPoint x="591" y="573" as="targetPoint" />
            <Array as="points">
              <mxPoint x="441" y="541" />
              <mxPoint x="488" y="540" />
              <mxPoint x="485" y="396" />
            </Array>
          </mxGeometry>
        </mxCell>
        <mxCell id="XZoQZrsDG4vRprca0sCM-37" value="Name" style="ellipse;whiteSpace=wrap;html=1;fillColor=#f0a30a;fontColor=#000000;strokeColor=#000000;fontStyle=1" parent="1" vertex="1">
          <mxGeometry x="512" y="406" width="90" height="60" as="geometry" />
        </mxCell>
        <mxCell id="XZoQZrsDG4vRprca0sCM-38" value="" style="endArrow=none;html=1;rounded=0;entryX=0;entryY=0.5;entryDx=0;entryDy=0;exitX=0.792;exitY=0.006;exitDx=0;exitDy=0;exitPerimeter=0;" parent="1" source="XZoQZrsDG4vRprca0sCM-20" target="XZoQZrsDG4vRprca0sCM-37" edge="1">
          <mxGeometry width="50" height="50" relative="1" as="geometry">
            <mxPoint x="365" y="525" as="sourcePoint" />
            <mxPoint x="415" y="475" as="targetPoint" />
            <Array as="points">
              <mxPoint x="444" y="544" />
              <mxPoint x="492" y="542" />
              <mxPoint x="491" y="466" />
            </Array>
          </mxGeometry>
        </mxCell>
        <mxCell id="XZoQZrsDG4vRprca0sCM-80" value="" style="endArrow=none;html=1;rounded=0;exitX=0.463;exitY=0.008;exitDx=0;exitDy=0;exitPerimeter=0;entryX=0.498;entryY=0.013;entryDx=0;entryDy=0;entryPerimeter=0;" parent="1" source="s5f5R7RKwob3gOme2G1C-22" target="s5f5R7RKwob3gOme2G1C-35" edge="1">
          <mxGeometry width="50" height="50" relative="1" as="geometry">
            <mxPoint x="33" y="434.9999999999999" as="sourcePoint" />
            <mxPoint x="256" y="456.02" as="targetPoint" />
            <Array as="points">
              <mxPoint x="33" y="417" />
              <mxPoint x="124" y="418" />
              <mxPoint x="255" y="418" />
            </Array>
          </mxGeometry>
        </mxCell>
        <mxCell id="XZoQZrsDG4vRprca0sCM-81" value="N" style="text;html=1;strokeColor=none;fillColor=none;align=center;verticalAlign=middle;whiteSpace=wrap;rounded=0;" parent="1" vertex="1">
          <mxGeometry x="23" y="391" width="34" height="30" as="geometry" />
        </mxCell>
        <mxCell id="XZoQZrsDG4vRprca0sCM-82" value="" style="endArrow=none;html=1;rounded=0;entryX=0.501;entryY=0.014;entryDx=0;entryDy=0;exitX=0.989;exitY=0.578;exitDx=0;exitDy=0;exitPerimeter=0;entryPerimeter=0;" parent="1" source="s5f5R7RKwob3gOme2G1C-22" target="s5f5R7RKwob3gOme2G1C-37" edge="1">
          <mxGeometry width="50" height="50" relative="1" as="geometry">
            <mxPoint x="99" y="471" as="sourcePoint" />
            <mxPoint x="297" y="614" as="targetPoint" />
            <Array as="points">
              <mxPoint x="142" y="471" />
            </Array>
          </mxGeometry>
        </mxCell>
        <mxCell id="XZoQZrsDG4vRprca0sCM-83" value="N" style="text;html=1;strokeColor=none;fillColor=none;align=center;verticalAlign=middle;whiteSpace=wrap;rounded=0;" parent="1" vertex="1">
          <mxGeometry x="93" y="445" width="29" height="30" as="geometry" />
        </mxCell>
        <mxCell id="XZoQZrsDG4vRprca0sCM-44" value="" style="rounded=0;whiteSpace=wrap;html=1;fillColor=#1ba1e2;fontColor=#ffffff;strokeColor=#000000;" parent="1" vertex="1">
          <mxGeometry x="354" y="797" width="120" height="60" as="geometry" />
        </mxCell>
        <mxCell id="XZoQZrsDG4vRprca0sCM-45" value="Video" style="rounded=0;whiteSpace=wrap;html=1;fillColor=#1ba1e2;fontColor=#000000;strokeColor=#000000;labelBackgroundColor=none;fontStyle=1" parent="1" vertex="1">
          <mxGeometry x="359" y="802" width="110" height="50" as="geometry" />
        </mxCell>
        <mxCell id="XZoQZrsDG4vRprca0sCM-84" value="" style="html=1;whiteSpace=wrap;aspect=fixed;shape=isoRectangle;fillColor=#60a917;fontColor=#ffffff;strokeColor=#000000;" parent="1" vertex="1">
          <mxGeometry x="360" y="684" width="100" height="60" as="geometry" />
        </mxCell>
        <mxCell id="XZoQZrsDG4vRprca0sCM-85" value="&lt;font color=&quot;#000000&quot;&gt;&lt;b&gt;Uploads&lt;/b&gt;&lt;/font&gt;" style="html=1;whiteSpace=wrap;aspect=fixed;shape=isoRectangle;fillColor=#60a917;fontColor=#ffffff;strokeColor=#000000;" parent="1" vertex="1">
          <mxGeometry x="367.51" y="688.5" width="84.98" height="51" as="geometry" />
        </mxCell>
        <mxCell id="XZoQZrsDG4vRprca0sCM-86" value="" style="endArrow=none;html=1;rounded=0;exitX=0.5;exitY=0.002;exitDx=0;exitDy=0;exitPerimeter=0;" parent="1" source="XZoQZrsDG4vRprca0sCM-84" edge="1">
          <mxGeometry width="50" height="50" relative="1" as="geometry">
            <mxPoint x="412" y="685" as="sourcePoint" />
            <mxPoint x="409" y="622" as="targetPoint" />
          </mxGeometry>
        </mxCell>
        <mxCell id="XZoQZrsDG4vRprca0sCM-87" value="" style="endArrow=none;html=1;rounded=0;entryX=0.477;entryY=0.972;entryDx=0;entryDy=0;entryPerimeter=0;exitX=0.449;exitY=0.014;exitDx=0;exitDy=0;exitPerimeter=0;" parent="1" source="XZoQZrsDG4vRprca0sCM-44" target="XZoQZrsDG4vRprca0sCM-84" edge="1">
          <mxGeometry width="50" height="50" relative="1" as="geometry">
            <mxPoint x="390" y="731" as="sourcePoint" />
            <mxPoint x="440" y="681" as="targetPoint" />
          </mxGeometry>
        </mxCell>
        <mxCell id="XZoQZrsDG4vRprca0sCM-88" value="" style="endArrow=none;html=1;rounded=0;entryX=0.522;entryY=0.974;entryDx=0;entryDy=0;entryPerimeter=0;exitX=0.49;exitY=0.012;exitDx=0;exitDy=0;exitPerimeter=0;" parent="1" source="XZoQZrsDG4vRprca0sCM-44" target="XZoQZrsDG4vRprca0sCM-84" edge="1">
          <mxGeometry width="50" height="50" relative="1" as="geometry">
            <mxPoint x="391" y="784" as="sourcePoint" />
            <mxPoint x="441" y="734" as="targetPoint" />
          </mxGeometry>
        </mxCell>
        <mxCell id="XZoQZrsDG4vRprca0sCM-89" value="1" style="text;html=1;strokeColor=none;fillColor=none;align=center;verticalAlign=middle;whiteSpace=wrap;rounded=0;" parent="1" vertex="1">
          <mxGeometry x="406.5" y="617" width="25" height="30" as="geometry" />
        </mxCell>
        <mxCell id="XZoQZrsDG4vRprca0sCM-90" value="N" style="text;html=1;strokeColor=none;fillColor=none;align=center;verticalAlign=middle;whiteSpace=wrap;rounded=0;" parent="1" vertex="1">
          <mxGeometry x="405.5" y="769" width="36" height="30" as="geometry" />
        </mxCell>
        <mxCell id="XZoQZrsDG4vRprca0sCM-60" value="" style="rounded=0;whiteSpace=wrap;html=1;fillColor=#1ba1e2;fontColor=#ffffff;strokeColor=#000000;" parent="1" vertex="1">
          <mxGeometry x="808" y="441" width="120" height="60" as="geometry" />
        </mxCell>
        <mxCell id="XZoQZrsDG4vRprca0sCM-61" value="Playlist" style="rounded=0;whiteSpace=wrap;html=1;fillColor=#1ba1e2;fontColor=#000000;strokeColor=#000000;labelBackgroundColor=none;fontStyle=1" parent="1" vertex="1">
          <mxGeometry x="813" y="446" width="110" height="50" as="geometry" />
        </mxCell>
        <mxCell id="XZoQZrsDG4vRprca0sCM-99" value="" style="html=1;whiteSpace=wrap;aspect=fixed;shape=isoRectangle;fillColor=#60a917;fontColor=#ffffff;strokeColor=#000000;" parent="1" vertex="1">
          <mxGeometry x="656" y="501" width="100" height="60" as="geometry" />
        </mxCell>
        <mxCell id="XZoQZrsDG4vRprca0sCM-100" value="&lt;font color=&quot;#000000&quot;&gt;&lt;b&gt;Creates&lt;/b&gt;&lt;/font&gt;" style="html=1;whiteSpace=wrap;aspect=fixed;shape=isoRectangle;fillColor=#60a917;fontColor=#ffffff;strokeColor=#000000;" parent="1" vertex="1">
          <mxGeometry x="663.51" y="505.5" width="84.98" height="51" as="geometry" />
        </mxCell>
        <mxCell id="XZoQZrsDG4vRprca0sCM-101" value="" style="endArrow=none;html=1;rounded=0;exitX=1.017;exitY=0.145;exitDx=0;exitDy=0;exitPerimeter=0;entryX=0.019;entryY=0.498;entryDx=0;entryDy=0;entryPerimeter=0;" parent="1" source="XZoQZrsDG4vRprca0sCM-20" target="XZoQZrsDG4vRprca0sCM-99" edge="1">
          <mxGeometry width="50" height="50" relative="1" as="geometry">
            <mxPoint x="697" y="594" as="sourcePoint" />
            <mxPoint x="747" y="544" as="targetPoint" />
            <Array as="points">
              <mxPoint x="641" y="567" />
              <mxPoint x="639" y="531" />
            </Array>
          </mxGeometry>
        </mxCell>
        <mxCell id="XZoQZrsDG4vRprca0sCM-102" value="" style="endArrow=none;html=1;rounded=0;entryX=0;entryY=0.5;entryDx=0;entryDy=0;exitX=0.984;exitY=0.484;exitDx=0;exitDy=0;exitPerimeter=0;" parent="1" source="XZoQZrsDG4vRprca0sCM-99" target="XZoQZrsDG4vRprca0sCM-60" edge="1">
          <mxGeometry width="50" height="50" relative="1" as="geometry">
            <mxPoint x="635" y="642" as="sourcePoint" />
            <mxPoint x="685" y="592" as="targetPoint" />
            <Array as="points">
              <mxPoint x="777" y="530" />
              <mxPoint x="776" y="471" />
            </Array>
          </mxGeometry>
        </mxCell>
        <mxCell id="XZoQZrsDG4vRprca0sCM-103" value="1" style="text;html=1;strokeColor=none;fillColor=none;align=center;verticalAlign=middle;whiteSpace=wrap;rounded=0;" parent="1" vertex="1">
          <mxGeometry x="464" y="545" width="31" height="30" as="geometry" />
        </mxCell>
        <mxCell id="XZoQZrsDG4vRprca0sCM-104" value="N" style="text;html=1;strokeColor=none;fillColor=none;align=center;verticalAlign=middle;whiteSpace=wrap;rounded=0;" parent="1" vertex="1">
          <mxGeometry x="774" y="441" width="30" height="30" as="geometry" />
        </mxCell>
        <mxCell id="XZoQZrsDG4vRprca0sCM-106" value="" style="endArrow=none;html=1;rounded=0;exitX=0.975;exitY=0.521;exitDx=0;exitDy=0;exitPerimeter=0;entryX=0;entryY=0.561;entryDx=0;entryDy=0;entryPerimeter=0;" parent="1" source="XZoQZrsDG4vRprca0sCM-99" target="XZoQZrsDG4vRprca0sCM-60" edge="1">
          <mxGeometry width="50" height="50" relative="1" as="geometry">
            <mxPoint x="785" y="548" as="sourcePoint" />
            <mxPoint x="807" y="473" as="targetPoint" />
            <Array as="points">
              <mxPoint x="780" y="533" />
              <mxPoint x="779" y="475" />
            </Array>
          </mxGeometry>
        </mxCell>
        <mxCell id="pdkHO2T4Vq1-MQgditqe-6" value="" style="endArrow=none;html=1;rounded=0;exitX=0.5;exitY=0;exitDx=0;exitDy=0;entryX=0.001;entryY=0.502;entryDx=0;entryDy=0;entryPerimeter=0;" parent="1" source="s5f5R7RKwob3gOme2G1C-1" target="s5f5R7RKwob3gOme2G1C-10" edge="1">
          <mxGeometry width="50" height="50" relative="1" as="geometry">
            <mxPoint x="-15" y="684" as="sourcePoint" />
            <mxPoint x="78" y="622" as="targetPoint" />
            <Array as="points">
              <mxPoint x="-15" y="618" />
              <mxPoint x="32" y="618" />
            </Array>
          </mxGeometry>
        </mxCell>
        <mxCell id="pdkHO2T4Vq1-MQgditqe-7" value="" style="endArrow=none;html=1;rounded=0;exitX=0.018;exitY=0.481;exitDx=0;exitDy=0;entryX=0.5;entryY=1;entryDx=0;entryDy=0;exitPerimeter=0;" parent="1" source="s5f5R7RKwob3gOme2G1C-13" target="s5f5R7RKwob3gOme2G1C-1" edge="1">
          <mxGeometry width="50" height="50" relative="1" as="geometry">
            <mxPoint x="145" y="785" as="sourcePoint" />
            <mxPoint x="-15" y="756" as="targetPoint" />
            <Array as="points">
              <mxPoint x="-13" y="849" />
            </Array>
          </mxGeometry>
        </mxCell>
        <mxCell id="pdkHO2T4Vq1-MQgditqe-8" value="N" style="text;html=1;strokeColor=none;fillColor=none;align=center;verticalAlign=middle;whiteSpace=wrap;rounded=0;" parent="1" vertex="1">
          <mxGeometry x="-23" y="668" width="36" height="30" as="geometry" />
        </mxCell>
        <mxCell id="pdkHO2T4Vq1-MQgditqe-10" value="N" style="text;html=1;strokeColor=none;fillColor=none;align=center;verticalAlign=middle;whiteSpace=wrap;rounded=0;" parent="1" vertex="1">
          <mxGeometry x="-23" y="744" width="33" height="30" as="geometry" />
        </mxCell>
        <mxCell id="pdkHO2T4Vq1-MQgditqe-11" value="Description" style="ellipse;whiteSpace=wrap;html=1;fontStyle=1;fillColor=#f0a30a;fontColor=#000000;strokeColor=#000000;" parent="1" vertex="1">
          <mxGeometry x="-232" y="690" width="90" height="60" as="geometry" />
        </mxCell>
        <mxCell id="pdkHO2T4Vq1-MQgditqe-12" value="" style="endArrow=none;html=1;rounded=0;entryX=1;entryY=0.5;entryDx=0;entryDy=0;exitX=0;exitY=0.5;exitDx=0;exitDy=0;exitPerimeter=0;" parent="1" source="s5f5R7RKwob3gOme2G1C-1" target="pdkHO2T4Vq1-MQgditqe-11" edge="1">
          <mxGeometry width="50" height="50" relative="1" as="geometry">
            <mxPoint x="-75" y="720" as="sourcePoint" />
            <mxPoint x="139" y="541" as="targetPoint" />
          </mxGeometry>
        </mxCell>
        <mxCell id="pdkHO2T4Vq1-MQgditqe-13" value="Content&lt;br&gt;Creator" style="ellipse;whiteSpace=wrap;html=1;fontStyle=1;fillColor=#f0a30a;fontColor=#000000;strokeColor=#000000;dashed=1;strokeWidth=2;" parent="1" vertex="1">
          <mxGeometry x="-232" y="617" width="90" height="60" as="geometry" />
        </mxCell>
        <mxCell id="pdkHO2T4Vq1-MQgditqe-14" value="" style="endArrow=none;html=1;rounded=0;entryX=1;entryY=0.5;entryDx=0;entryDy=0;exitX=0;exitY=0;exitDx=0;exitDy=0;" parent="1" source="s5f5R7RKwob3gOme2G1C-1" target="pdkHO2T4Vq1-MQgditqe-13" edge="1">
          <mxGeometry width="50" height="50" relative="1" as="geometry">
            <mxPoint x="-75" y="684" as="sourcePoint" />
            <mxPoint x="91" y="564" as="targetPoint" />
          </mxGeometry>
        </mxCell>
        <mxCell id="pdkHO2T4Vq1-MQgditqe-23" value="" style="rounded=0;whiteSpace=wrap;html=1;fillColor=#008a00;fontColor=#ffffff;strokeColor=#000000;" parent="1" vertex="1">
          <mxGeometry x="165" y="684" width="120" height="72" as="geometry" />
        </mxCell>
        <mxCell id="pdkHO2T4Vq1-MQgditqe-24" value="&lt;font color=&quot;#000000&quot;&gt;&lt;b&gt;Video&lt;br&gt;Like&lt;br&gt;&lt;/b&gt;&lt;/font&gt;" style="html=1;whiteSpace=wrap;aspect=fixed;shape=isoRectangle;fillColor=#60a917;fontColor=#ffffff;strokeColor=#000000;" parent="1" vertex="1">
          <mxGeometry x="165" y="684" width="120" height="72" as="geometry" />
        </mxCell>
        <mxCell id="pdkHO2T4Vq1-MQgditqe-25" value="" style="endArrow=none;html=1;rounded=0;entryX=0.082;entryY=1.093;entryDx=0;entryDy=0;entryPerimeter=0;exitX=0.5;exitY=0;exitDx=0;exitDy=0;" parent="1" source="pdkHO2T4Vq1-MQgditqe-23" target="XZoQZrsDG4vRprca0sCM-21" edge="1">
          <mxGeometry width="50" height="50" relative="1" as="geometry">
            <mxPoint x="313" y="783" as="sourcePoint" />
            <mxPoint x="363" y="733" as="targetPoint" />
            <Array as="points">
              <mxPoint x="225" y="663" />
              <mxPoint x="364" y="663" />
            </Array>
          </mxGeometry>
        </mxCell>
        <mxCell id="pdkHO2T4Vq1-MQgditqe-26" value="N" style="text;html=1;strokeColor=none;fillColor=none;align=center;verticalAlign=middle;whiteSpace=wrap;rounded=0;" parent="1" vertex="1">
          <mxGeometry x="359" y="620" width="34" height="30" as="geometry" />
        </mxCell>
        <mxCell id="pdkHO2T4Vq1-MQgditqe-27" value="" style="endArrow=none;html=1;rounded=0;exitX=0.5;exitY=1;exitDx=0;exitDy=0;entryX=0;entryY=0.25;entryDx=0;entryDy=0;" parent="1" source="pdkHO2T4Vq1-MQgditqe-23" target="XZoQZrsDG4vRprca0sCM-44" edge="1">
          <mxGeometry width="50" height="50" relative="1" as="geometry">
            <mxPoint x="313" y="700" as="sourcePoint" />
            <mxPoint x="363" y="650" as="targetPoint" />
            <Array as="points">
              <mxPoint x="225" y="812" />
            </Array>
          </mxGeometry>
        </mxCell>
        <mxCell id="pdkHO2T4Vq1-MQgditqe-28" value="M" style="text;html=1;strokeColor=none;fillColor=none;align=center;verticalAlign=middle;whiteSpace=wrap;rounded=0;" parent="1" vertex="1">
          <mxGeometry x="326" y="787" width="35" height="30" as="geometry" />
        </mxCell>
        <mxCell id="pdkHO2T4Vq1-MQgditqe-29" value="Title" style="ellipse;whiteSpace=wrap;html=1;fillColor=#f0a30a;fontColor=#000000;strokeColor=#000000;fontStyle=1" parent="1" vertex="1">
          <mxGeometry x="71" y="942" width="90" height="60" as="geometry" />
        </mxCell>
        <mxCell id="pdkHO2T4Vq1-MQgditqe-30" value="" style="endArrow=none;html=1;rounded=0;exitX=0.079;exitY=0.999;exitDx=0;exitDy=0;exitPerimeter=0;entryX=0.5;entryY=0;entryDx=0;entryDy=0;" parent="1" source="XZoQZrsDG4vRprca0sCM-44" target="pdkHO2T4Vq1-MQgditqe-29" edge="1">
          <mxGeometry width="50" height="50" relative="1" as="geometry">
            <mxPoint x="411" y="840" as="sourcePoint" />
            <mxPoint x="461" y="790" as="targetPoint" />
          </mxGeometry>
        </mxCell>
        <mxCell id="pdkHO2T4Vq1-MQgditqe-31" value="Length" style="ellipse;whiteSpace=wrap;html=1;fillColor=#f0a30a;fontColor=#000000;strokeColor=#000000;fontStyle=1" parent="1" vertex="1">
          <mxGeometry x="172" y="942" width="90" height="60" as="geometry" />
        </mxCell>
        <mxCell id="pdkHO2T4Vq1-MQgditqe-32" value="" style="endArrow=none;html=1;rounded=0;entryX=0.125;entryY=1.017;entryDx=0;entryDy=0;entryPerimeter=0;exitX=0.5;exitY=0;exitDx=0;exitDy=0;" parent="1" source="pdkHO2T4Vq1-MQgditqe-31" target="XZoQZrsDG4vRprca0sCM-44" edge="1">
          <mxGeometry width="50" height="50" relative="1" as="geometry">
            <mxPoint x="254" y="1002" as="sourcePoint" />
            <mxPoint x="304" y="952" as="targetPoint" />
          </mxGeometry>
        </mxCell>
        <mxCell id="pdkHO2T4Vq1-MQgditqe-34" value="Uploaded On" style="ellipse;whiteSpace=wrap;html=1;fillColor=#f0a30a;fontColor=#000000;strokeColor=#000000;fontStyle=1" parent="1" vertex="1">
          <mxGeometry x="270" y="942" width="90" height="60" as="geometry" />
        </mxCell>
        <mxCell id="pdkHO2T4Vq1-MQgditqe-35" value="" style="endArrow=none;html=1;rounded=0;entryX=0.192;entryY=1;entryDx=0;entryDy=0;entryPerimeter=0;exitX=0.5;exitY=0;exitDx=0;exitDy=0;" parent="1" source="pdkHO2T4Vq1-MQgditqe-34" target="XZoQZrsDG4vRprca0sCM-44" edge="1">
          <mxGeometry width="50" height="50" relative="1" as="geometry">
            <mxPoint x="254" y="1002" as="sourcePoint" />
            <mxPoint x="304" y="952" as="targetPoint" />
          </mxGeometry>
        </mxCell>
        <mxCell id="pdkHO2T4Vq1-MQgditqe-36" value="Created On" style="ellipse;whiteSpace=wrap;html=1;fillColor=#f0a30a;fontColor=#000000;strokeColor=#000000;fontStyle=1" parent="1" vertex="1">
          <mxGeometry x="-160" y="441" width="90" height="60" as="geometry" />
        </mxCell>
        <mxCell id="pdkHO2T4Vq1-MQgditqe-37" value="" style="endArrow=none;html=1;rounded=0;entryX=1;entryY=0.5;entryDx=0;entryDy=0;exitX=0.003;exitY=0.573;exitDx=0;exitDy=0;exitPerimeter=0;" parent="1" source="s5f5R7RKwob3gOme2G1C-22" target="pdkHO2T4Vq1-MQgditqe-36" edge="1">
          <mxGeometry width="50" height="50" relative="1" as="geometry">
            <mxPoint x="-27" y="472" as="sourcePoint" />
            <mxPoint x="231" y="608" as="targetPoint" />
          </mxGeometry>
        </mxCell>
        <mxCell id="pdkHO2T4Vq1-MQgditqe-39" value="Views" style="ellipse;whiteSpace=wrap;html=1;fillColor=#f0a30a;fontColor=#000000;strokeColor=#000000;fontStyle=1" parent="1" vertex="1">
          <mxGeometry x="422" y="1033" width="90" height="60" as="geometry" />
        </mxCell>
        <mxCell id="pdkHO2T4Vq1-MQgditqe-40" value="" style="endArrow=none;html=1;rounded=0;entryX=0.5;entryY=0;entryDx=0;entryDy=0;exitX=0.533;exitY=1;exitDx=0;exitDy=0;exitPerimeter=0;" parent="1" source="XZoQZrsDG4vRprca0sCM-44" target="pdkHO2T4Vq1-MQgditqe-39" edge="1">
          <mxGeometry width="50" height="50" relative="1" as="geometry">
            <mxPoint x="335" y="778" as="sourcePoint" />
            <mxPoint x="385" y="728" as="targetPoint" />
          </mxGeometry>
        </mxCell>
        <mxCell id="pdkHO2T4Vq1-MQgditqe-41" value="Description" style="ellipse;whiteSpace=wrap;html=1;fillColor=#f0a30a;fontColor=#000000;strokeColor=#000000;fontStyle=1" parent="1" vertex="1">
          <mxGeometry x="460" y="942" width="90" height="60" as="geometry" />
        </mxCell>
        <mxCell id="pdkHO2T4Vq1-MQgditqe-42" value="" style="endArrow=none;html=1;rounded=0;entryX=0.642;entryY=1.017;entryDx=0;entryDy=0;entryPerimeter=0;exitX=0.289;exitY=0.033;exitDx=0;exitDy=0;exitPerimeter=0;" parent="1" source="pdkHO2T4Vq1-MQgditqe-41" target="XZoQZrsDG4vRprca0sCM-44" edge="1">
          <mxGeometry width="50" height="50" relative="1" as="geometry">
            <mxPoint x="335" y="903" as="sourcePoint" />
            <mxPoint x="385" y="853" as="targetPoint" />
          </mxGeometry>
        </mxCell>
        <mxCell id="pdkHO2T4Vq1-MQgditqe-44" value="" style="ellipse;whiteSpace=wrap;html=1;fillColor=#f0a30a;fontColor=#000000;strokeColor=#000000;fontStyle=1" parent="1" vertex="1">
          <mxGeometry x="663.51" y="942" width="90" height="60" as="geometry" />
        </mxCell>
        <mxCell id="pdkHO2T4Vq1-MQgditqe-45" value="" style="endArrow=none;html=1;rounded=0;entryX=0.833;entryY=1.017;entryDx=0;entryDy=0;entryPerimeter=0;exitX=0.5;exitY=0;exitDx=0;exitDy=0;" parent="1" source="pdkHO2T4Vq1-MQgditqe-43" target="XZoQZrsDG4vRprca0sCM-44" edge="1">
          <mxGeometry width="50" height="50" relative="1" as="geometry">
            <mxPoint x="335" y="1028" as="sourcePoint" />
            <mxPoint x="385" y="978" as="targetPoint" />
          </mxGeometry>
        </mxCell>
        <mxCell id="pdkHO2T4Vq1-MQgditqe-46" value="" style="endArrow=none;html=1;rounded=0;exitX=0.5;exitY=0;exitDx=0;exitDy=0;entryX=1;entryY=1;entryDx=0;entryDy=0;" parent="1" source="pdkHO2T4Vq1-MQgditqe-44" target="XZoQZrsDG4vRprca0sCM-44" edge="1">
          <mxGeometry width="50" height="50" relative="1" as="geometry">
            <mxPoint x="335" y="1028" as="sourcePoint" />
            <mxPoint x="476" y="851" as="targetPoint" />
          </mxGeometry>
        </mxCell>
        <mxCell id="pdkHO2T4Vq1-MQgditqe-51" value="1" style="text;html=1;strokeColor=none;fillColor=none;align=center;verticalAlign=middle;whiteSpace=wrap;rounded=0;" parent="1" vertex="1">
          <mxGeometry x="431.5" y="615" width="25" height="30" as="geometry" />
        </mxCell>
        <mxCell id="pdkHO2T4Vq1-MQgditqe-52" value="N" style="text;html=1;strokeColor=none;fillColor=none;align=center;verticalAlign=middle;whiteSpace=wrap;rounded=0;" parent="1" vertex="1">
          <mxGeometry x="827" y="781.5" width="36" height="30" as="geometry" />
        </mxCell>
        <mxCell id="pdkHO2T4Vq1-MQgditqe-53" value="Content" style="ellipse;whiteSpace=wrap;html=1;fillColor=#f0a30a;fontColor=#000000;strokeColor=#000000;fontStyle=1" parent="1" vertex="1">
          <mxGeometry x="903" y="621" width="90" height="60" as="geometry" />
        </mxCell>
        <mxCell id="pdkHO2T4Vq1-MQgditqe-54" value="Created On" style="ellipse;whiteSpace=wrap;html=1;fillColor=#f0a30a;fontColor=#000000;strokeColor=#000000;fontStyle=1" parent="1" vertex="1">
          <mxGeometry x="1008" y="638" width="90" height="60" as="geometry" />
        </mxCell>
        <mxCell id="pdkHO2T4Vq1-MQgditqe-57" value="" style="endArrow=none;html=1;rounded=0;entryX=0;entryY=0.25;entryDx=0;entryDy=0;exitX=0;exitY=0.502;exitDx=0;exitDy=0;exitPerimeter=0;" parent="1" source="esMWrdwkYRZb5IMy4d5i-12" target="pdkHO2T4Vq1-MQgditqe-51" edge="1">
          <mxGeometry width="50" height="50" relative="1" as="geometry">
            <mxPoint x="537" y="756" as="sourcePoint" />
            <mxPoint x="604" y="736" as="targetPoint" />
            <Array as="points">
              <mxPoint x="520" y="744" />
              <mxPoint x="433" y="681" />
            </Array>
          </mxGeometry>
        </mxCell>
        <mxCell id="pdkHO2T4Vq1-MQgditqe-58" value="" style="rounded=0;whiteSpace=wrap;html=1;fillColor=#008a00;fontColor=#ffffff;strokeColor=#000000;" parent="1" vertex="1">
          <mxGeometry x="536" y="615" width="120" height="72" as="geometry" />
        </mxCell>
        <mxCell id="pdkHO2T4Vq1-MQgditqe-59" value="&lt;font color=&quot;#000000&quot;&gt;&lt;b&gt;Comment&lt;br&gt;Like&lt;br&gt;&lt;/b&gt;&lt;/font&gt;" style="html=1;whiteSpace=wrap;aspect=fixed;shape=isoRectangle;fillColor=#60a917;fontColor=#ffffff;strokeColor=#000000;" parent="1" vertex="1">
          <mxGeometry x="536" y="615" width="120" height="72" as="geometry" />
        </mxCell>
        <mxCell id="pdkHO2T4Vq1-MQgditqe-61" value="" style="endArrow=none;html=1;rounded=0;entryX=0.985;entryY=0.508;entryDx=0;entryDy=0;entryPerimeter=0;exitX=0.112;exitY=0;exitDx=0;exitDy=0;exitPerimeter=0;" parent="1" source="esMWrdwkYRZb5IMy4d5i-3" target="pdkHO2T4Vq1-MQgditqe-59" edge="1">
          <mxGeometry width="50" height="50" relative="1" as="geometry">
            <mxPoint x="873" y="756" as="sourcePoint" />
            <mxPoint x="596" y="688" as="targetPoint" />
            <Array as="points">
              <mxPoint x="873" y="652" />
            </Array>
          </mxGeometry>
        </mxCell>
        <mxCell id="pdkHO2T4Vq1-MQgditqe-62" value="" style="endArrow=none;html=1;rounded=0;entryX=1;entryY=0.5;entryDx=0;entryDy=0;exitX=0.5;exitY=0;exitDx=0;exitDy=0;" parent="1" source="pdkHO2T4Vq1-MQgditqe-58" target="XZoQZrsDG4vRprca0sCM-20" edge="1">
          <mxGeometry width="50" height="50" relative="1" as="geometry">
            <mxPoint x="575" y="711" as="sourcePoint" />
            <mxPoint x="480" y="619" as="targetPoint" />
            <Array as="points">
              <mxPoint x="596" y="591" />
            </Array>
          </mxGeometry>
        </mxCell>
        <mxCell id="pdkHO2T4Vq1-MQgditqe-63" value="N" style="text;html=1;strokeColor=none;fillColor=none;align=center;verticalAlign=middle;whiteSpace=wrap;rounded=0;" parent="1" vertex="1">
          <mxGeometry x="462" y="570" width="33" height="30" as="geometry" />
        </mxCell>
        <mxCell id="pdkHO2T4Vq1-MQgditqe-64" value="M" style="text;html=1;strokeColor=none;fillColor=none;align=center;verticalAlign=middle;whiteSpace=wrap;rounded=0;" parent="1" vertex="1">
          <mxGeometry x="871" y="726" width="30" height="30" as="geometry" />
        </mxCell>
        <mxCell id="pdkHO2T4Vq1-MQgditqe-65" value="" style="endArrow=none;html=1;rounded=0;exitX=0.5;exitY=1;exitDx=0;exitDy=0;entryX=0.734;entryY=0.004;entryDx=0;entryDy=0;entryPerimeter=0;" parent="1" source="pdkHO2T4Vq1-MQgditqe-53" target="esMWrdwkYRZb5IMy4d5i-3" edge="1">
          <mxGeometry width="50" height="50" relative="1" as="geometry">
            <mxPoint x="717" y="743" as="sourcePoint" />
            <mxPoint x="948" y="756" as="targetPoint" />
          </mxGeometry>
        </mxCell>
        <mxCell id="pdkHO2T4Vq1-MQgditqe-66" value="" style="endArrow=none;html=1;rounded=0;entryX=0;entryY=1;entryDx=0;entryDy=0;exitX=1;exitY=0;exitDx=0;exitDy=0;" parent="1" source="esMWrdwkYRZb5IMy4d5i-3" target="pdkHO2T4Vq1-MQgditqe-54" edge="1">
          <mxGeometry width="50" height="50" relative="1" as="geometry">
            <mxPoint x="979" y="747" as="sourcePoint" />
            <mxPoint x="536" y="697" as="targetPoint" />
          </mxGeometry>
        </mxCell>
        <mxCell id="pdkHO2T4Vq1-MQgditqe-68" value="Created On" style="ellipse;whiteSpace=wrap;html=1;fillColor=#f0a30a;fontColor=#000000;strokeColor=#000000;fontStyle=1" parent="1" vertex="1">
          <mxGeometry x="512" y="475" width="90" height="60" as="geometry" />
        </mxCell>
        <mxCell id="pdkHO2T4Vq1-MQgditqe-69" value="" style="endArrow=none;html=1;rounded=0;entryX=0;entryY=0.5;entryDx=0;entryDy=0;" parent="1" target="pdkHO2T4Vq1-MQgditqe-68" edge="1">
          <mxGeometry width="50" height="50" relative="1" as="geometry">
            <mxPoint x="449" y="560" as="sourcePoint" />
            <mxPoint x="422" y="452" as="targetPoint" />
            <Array as="points">
              <mxPoint x="447" y="546" />
              <mxPoint x="495" y="545" />
              <mxPoint x="495" y="525" />
            </Array>
          </mxGeometry>
        </mxCell>
        <mxCell id="pdkHO2T4Vq1-MQgditqe-70" value="" style="rounded=0;whiteSpace=wrap;html=1;fillColor=#008a00;fontColor=#ffffff;strokeColor=#000000;" parent="1" vertex="1">
          <mxGeometry x="1247" y="809" width="120" height="72" as="geometry" />
        </mxCell>
        <mxCell id="pdkHO2T4Vq1-MQgditqe-71" value="&lt;font color=&quot;#000000&quot;&gt;&lt;b&gt;Playlist&lt;br&gt;Participation&lt;br&gt;&lt;/b&gt;&lt;/font&gt;" style="html=1;whiteSpace=wrap;aspect=fixed;shape=isoRectangle;fillColor=#60a917;fontColor=#ffffff;strokeColor=#000000;" parent="1" vertex="1">
          <mxGeometry x="1247" y="809" width="120" height="72" as="geometry" />
        </mxCell>
        <mxCell id="pdkHO2T4Vq1-MQgditqe-72" value="" style="endArrow=none;html=1;rounded=0;exitX=0.507;exitY=0.035;exitDx=0;exitDy=0;exitPerimeter=0;entryX=0.551;entryY=1.008;entryDx=0;entryDy=0;entryPerimeter=0;" parent="1" source="pdkHO2T4Vq1-MQgditqe-71" target="XZoQZrsDG4vRprca0sCM-60" edge="1">
          <mxGeometry width="50" height="50" relative="1" as="geometry">
            <mxPoint x="530" y="689" as="sourcePoint" />
            <mxPoint x="874" y="504" as="targetPoint" />
            <Array as="points">
              <mxPoint x="1305" y="663" />
              <mxPoint x="874" y="557" />
            </Array>
          </mxGeometry>
        </mxCell>
        <mxCell id="pdkHO2T4Vq1-MQgditqe-73" value="" style="endArrow=none;html=1;rounded=0;exitX=1.003;exitY=0.853;exitDx=0;exitDy=0;exitPerimeter=0;entryX=0;entryY=0.5;entryDx=0;entryDy=0;" parent="1" source="XZoQZrsDG4vRprca0sCM-44" target="pdkHO2T4Vq1-MQgditqe-70" edge="1">
          <mxGeometry width="50" height="50" relative="1" as="geometry">
            <mxPoint x="626" y="845" as="sourcePoint" />
            <mxPoint x="813" y="846" as="targetPoint" />
          </mxGeometry>
        </mxCell>
        <mxCell id="pdkHO2T4Vq1-MQgditqe-74" value="N" style="text;html=1;strokeColor=none;fillColor=none;align=center;verticalAlign=middle;whiteSpace=wrap;rounded=0;" parent="1" vertex="1">
          <mxGeometry x="871" y="501" width="32" height="30" as="geometry" />
        </mxCell>
        <mxCell id="pdkHO2T4Vq1-MQgditqe-75" value="M" style="text;html=1;strokeColor=none;fillColor=none;align=center;verticalAlign=middle;whiteSpace=wrap;rounded=0;" parent="1" vertex="1">
          <mxGeometry x="470" y="826" width="36" height="30" as="geometry" />
        </mxCell>
        <mxCell id="pdkHO2T4Vq1-MQgditqe-76" value="Thumbnail" style="ellipse;whiteSpace=wrap;html=1;fillColor=#f0a30a;fontColor=#000000;strokeColor=#000000;fontStyle=1" parent="1" vertex="1">
          <mxGeometry x="285" y="1036" width="90" height="60" as="geometry" />
        </mxCell>
        <mxCell id="pdkHO2T4Vq1-MQgditqe-77" value="" style="endArrow=none;html=1;rounded=0;entryX=0.364;entryY=1;entryDx=0;entryDy=0;entryPerimeter=0;exitX=0.691;exitY=0.004;exitDx=0;exitDy=0;exitPerimeter=0;" parent="1" source="pdkHO2T4Vq1-MQgditqe-76" target="XZoQZrsDG4vRprca0sCM-44" edge="1">
          <mxGeometry width="50" height="50" relative="1" as="geometry">
            <mxPoint x="331" y="917" as="sourcePoint" />
            <mxPoint x="381" y="867" as="targetPoint" />
          </mxGeometry>
        </mxCell>
        <mxCell id="pdkHO2T4Vq1-MQgditqe-78" value="Comment&lt;br&gt;Existence" style="ellipse;whiteSpace=wrap;html=1;fillColor=#f0a30a;fontColor=#000000;strokeColor=#000000;fontStyle=1" parent="1" vertex="1">
          <mxGeometry x="354" y="1096" width="90" height="60" as="geometry" />
        </mxCell>
        <mxCell id="pdkHO2T4Vq1-MQgditqe-79" value="" style="endArrow=none;html=1;rounded=0;entryX=0.442;entryY=0.991;entryDx=0;entryDy=0;entryPerimeter=0;exitX=0.5;exitY=0;exitDx=0;exitDy=0;" parent="1" source="pdkHO2T4Vq1-MQgditqe-78" target="XZoQZrsDG4vRprca0sCM-44" edge="1">
          <mxGeometry width="50" height="50" relative="1" as="geometry">
            <mxPoint x="398" y="1013" as="sourcePoint" />
            <mxPoint x="448" y="963" as="targetPoint" />
          </mxGeometry>
        </mxCell>
        <mxCell id="pdkHO2T4Vq1-MQgditqe-80" value="Name" style="ellipse;whiteSpace=wrap;html=1;fillColor=#f0a30a;fontColor=#000000;strokeColor=#000000;fontStyle=1" parent="1" vertex="1">
          <mxGeometry x="966" y="350" width="90" height="60" as="geometry" />
        </mxCell>
        <mxCell id="pdkHO2T4Vq1-MQgditqe-81" value="" style="ellipse;whiteSpace=wrap;html=1;fillColor=#f0a30a;fontColor=#000000;strokeColor=#000000;fontStyle=1" parent="1" vertex="1">
          <mxGeometry x="966" y="441" width="90" height="60" as="geometry" />
        </mxCell>
        <mxCell id="pdkHO2T4Vq1-MQgditqe-82" value="" style="endArrow=none;html=1;rounded=0;entryX=0;entryY=0.5;entryDx=0;entryDy=0;" parent="1" target="pdkHO2T4Vq1-MQgditqe-80" edge="1">
          <mxGeometry width="50" height="50" relative="1" as="geometry">
            <mxPoint x="928" y="456" as="sourcePoint" />
            <mxPoint x="660" y="454" as="targetPoint" />
          </mxGeometry>
        </mxCell>
        <mxCell id="pdkHO2T4Vq1-MQgditqe-83" value="" style="endArrow=none;html=1;rounded=0;entryX=0;entryY=0.5;entryDx=0;entryDy=0;exitX=1;exitY=0.5;exitDx=0;exitDy=0;" parent="1" source="XZoQZrsDG4vRprca0sCM-60" target="pdkHO2T4Vq1-MQgditqe-81" edge="1">
          <mxGeometry width="50" height="50" relative="1" as="geometry">
            <mxPoint x="795" y="529" as="sourcePoint" />
            <mxPoint x="845" y="479" as="targetPoint" />
          </mxGeometry>
        </mxCell>
        <mxCell id="pdkHO2T4Vq1-MQgditqe-84" value="Video&lt;br&gt;Count" style="ellipse;whiteSpace=wrap;html=1;fillColor=#f0a30a;fontColor=#000000;strokeColor=#000000;fontStyle=1;dashed=1;strokeWidth=2;" parent="1" vertex="1">
          <mxGeometry x="966" y="515" width="90" height="60" as="geometry" />
        </mxCell>
        <mxCell id="pdkHO2T4Vq1-MQgditqe-85" value="" style="endArrow=none;html=1;rounded=0;entryX=0;entryY=0.5;entryDx=0;entryDy=0;exitX=1;exitY=0.75;exitDx=0;exitDy=0;" parent="1" source="XZoQZrsDG4vRprca0sCM-60" target="pdkHO2T4Vq1-MQgditqe-84" edge="1">
          <mxGeometry width="50" height="50" relative="1" as="geometry">
            <mxPoint x="644" y="461" as="sourcePoint" />
            <mxPoint x="694" y="411" as="targetPoint" />
          </mxGeometry>
        </mxCell>
        <mxCell id="hw7H4sjWpk08k4v9Mgxn-2" value="" style="group;fontStyle=1" parent="1" vertex="1" connectable="0">
          <mxGeometry x="562" y="942" width="90" height="60" as="geometry" />
        </mxCell>
        <mxCell id="pdkHO2T4Vq1-MQgditqe-43" value="" style="ellipse;whiteSpace=wrap;html=1;fillColor=#f0a30a;fontColor=#000000;strokeColor=#000000;fontStyle=1" parent="hw7H4sjWpk08k4v9Mgxn-2" vertex="1">
          <mxGeometry width="90" height="60" as="geometry" />
        </mxCell>
        <mxCell id="hw7H4sjWpk08k4v9Mgxn-1" value="&lt;b&gt;Type&lt;/b&gt;" style="ellipse;whiteSpace=wrap;html=1;fillColor=#f0a30a;strokeColor=#000000;fontColor=#000000;" parent="hw7H4sjWpk08k4v9Mgxn-2" vertex="1">
          <mxGeometry x="5" y="3.5" width="80" height="53" as="geometry" />
        </mxCell>
        <mxCell id="hw7H4sjWpk08k4v9Mgxn-3" value="&lt;b&gt;Video&lt;br&gt;Visibility&lt;/b&gt;" style="ellipse;whiteSpace=wrap;html=1;fillColor=#f0a30a;fontColor=#000000;strokeColor=#000000;" parent="1" vertex="1">
          <mxGeometry x="668.51" y="945.5" width="80" height="53" as="geometry" />
        </mxCell>
        <mxCell id="hw7H4sjWpk08k4v9Mgxn-4" value="About" style="ellipse;whiteSpace=wrap;html=1;fillColor=#f0a30a;fontColor=#000000;strokeColor=#000000;fontStyle=1" parent="1" vertex="1">
          <mxGeometry x="618" y="337" width="90" height="60" as="geometry" />
        </mxCell>
        <mxCell id="hw7H4sjWpk08k4v9Mgxn-6" value="" style="endArrow=none;html=1;rounded=0;entryX=0;entryY=0;entryDx=0;entryDy=0;exitX=0.737;exitY=-0.004;exitDx=0;exitDy=0;exitPerimeter=0;" parent="1" source="XZoQZrsDG4vRprca0sCM-20" target="hw7H4sjWpk08k4v9Mgxn-4" edge="1">
          <mxGeometry width="50" height="50" relative="1" as="geometry">
            <mxPoint x="437" y="560" as="sourcePoint" />
            <mxPoint x="529" y="344" as="targetPoint" />
            <Array as="points">
              <mxPoint x="437" y="539" />
              <mxPoint x="483" y="536" />
              <mxPoint x="481" y="377" />
              <mxPoint x="539" y="328" />
            </Array>
          </mxGeometry>
        </mxCell>
        <mxCell id="hw7H4sjWpk08k4v9Mgxn-7" value="&lt;b&gt;Visibility&lt;/b&gt;" style="ellipse;whiteSpace=wrap;html=1;fillColor=#f0a30a;fontColor=#000000;strokeColor=#000000;" parent="1" vertex="1">
          <mxGeometry x="971" y="444.5" width="80" height="53" as="geometry" />
        </mxCell>
        <mxCell id="hw7H4sjWpk08k4v9Mgxn-9" value="" style="html=1;whiteSpace=wrap;aspect=fixed;shape=isoRectangle;fillColor=#60a917;fontColor=#ffffff;strokeColor=#000000;" parent="1" vertex="1">
          <mxGeometry x="1051" y="735" width="100" height="60" as="geometry" />
        </mxCell>
        <mxCell id="hw7H4sjWpk08k4v9Mgxn-10" value="&lt;font color=&quot;#000000&quot;&gt;&lt;b&gt;Replied By&lt;br&gt;&lt;/b&gt;&lt;/font&gt;" style="html=1;whiteSpace=wrap;aspect=fixed;shape=isoRectangle;fillColor=#60a917;fontColor=#ffffff;strokeColor=#000000;" parent="1" vertex="1">
          <mxGeometry x="1058.51" y="739.5" width="84.98" height="51" as="geometry" />
        </mxCell>
        <mxCell id="hw7H4sjWpk08k4v9Mgxn-11" value="" style="endArrow=none;html=1;rounded=0;entryX=0.003;entryY=0.495;entryDx=0;entryDy=0;entryPerimeter=0;exitX=0.998;exitY=0.133;exitDx=0;exitDy=0;exitPerimeter=0;" parent="1" source="esMWrdwkYRZb5IMy4d5i-3" target="hw7H4sjWpk08k4v9Mgxn-9" edge="1">
          <mxGeometry width="50" height="50" relative="1" as="geometry">
            <mxPoint x="979" y="765" as="sourcePoint" />
            <mxPoint x="721" y="676" as="targetPoint" />
          </mxGeometry>
        </mxCell>
        <mxCell id="hw7H4sjWpk08k4v9Mgxn-14" value="1" style="text;html=1;strokeColor=none;fillColor=none;align=center;verticalAlign=middle;whiteSpace=wrap;rounded=0;" parent="1" vertex="1">
          <mxGeometry x="990.25" y="739.5" width="27.51" height="30" as="geometry" />
        </mxCell>
        <mxCell id="hw7H4sjWpk08k4v9Mgxn-15" value="N" style="text;html=1;strokeColor=none;fillColor=none;align=center;verticalAlign=middle;whiteSpace=wrap;rounded=0;" parent="1" vertex="1">
          <mxGeometry x="992" y="782" width="24" height="30" as="geometry" />
        </mxCell>
        <mxCell id="s5f5R7RKwob3gOme2G1C-1" value="" style="rounded=0;whiteSpace=wrap;html=1;fillColor=#1ba1e2;fontColor=#ffffff;strokeColor=#000000;" parent="1" vertex="1">
          <mxGeometry x="-74" y="690" width="120" height="60" as="geometry" />
        </mxCell>
        <mxCell id="s5f5R7RKwob3gOme2G1C-2" value="Video&lt;br&gt;Notification" style="rounded=0;whiteSpace=wrap;html=1;fillColor=#1ba1e2;fontColor=#000000;strokeColor=#000000;labelBackgroundColor=none;fontStyle=1" parent="1" vertex="1">
          <mxGeometry x="-69" y="695" width="110" height="50" as="geometry" />
        </mxCell>
        <mxCell id="s5f5R7RKwob3gOme2G1C-3" value="1" style="text;html=1;strokeColor=none;fillColor=none;align=center;verticalAlign=middle;whiteSpace=wrap;rounded=0;" parent="1" vertex="1">
          <mxGeometry x="320" y="591" width="36" height="30" as="geometry" />
        </mxCell>
        <mxCell id="s5f5R7RKwob3gOme2G1C-4" value="1" style="text;html=1;strokeColor=none;fillColor=none;align=center;verticalAlign=middle;whiteSpace=wrap;rounded=0;" parent="1" vertex="1">
          <mxGeometry x="323" y="827" width="36" height="30" as="geometry" />
        </mxCell>
        <mxCell id="s5f5R7RKwob3gOme2G1C-10" value="" style="html=1;whiteSpace=wrap;aspect=fixed;shape=isoRectangle;fillColor=#60a917;fontColor=#ffffff;strokeColor=#000000;" parent="1" vertex="1">
          <mxGeometry x="93" y="585" width="100" height="60" as="geometry" />
        </mxCell>
        <mxCell id="s5f5R7RKwob3gOme2G1C-11" value="&lt;font color=&quot;#000000&quot;&gt;&lt;b&gt;Sent to&lt;/b&gt;&lt;/font&gt;" style="html=1;whiteSpace=wrap;aspect=fixed;shape=isoRectangle;fillColor=#60a917;fontColor=#ffffff;strokeColor=#000000;" parent="1" vertex="1">
          <mxGeometry x="100.50999999999999" y="589.5" width="84.98" height="51" as="geometry" />
        </mxCell>
        <mxCell id="s5f5R7RKwob3gOme2G1C-12" value="" style="endArrow=none;html=1;rounded=0;entryX=0;entryY=0.903;entryDx=0;entryDy=0;entryPerimeter=0;exitX=0.99;exitY=0.503;exitDx=0;exitDy=0;exitPerimeter=0;" parent="1" source="s5f5R7RKwob3gOme2G1C-10" target="XZoQZrsDG4vRprca0sCM-20" edge="1">
          <mxGeometry width="50" height="50" relative="1" as="geometry">
            <mxPoint x="200" y="652" as="sourcePoint" />
            <mxPoint x="250" y="602" as="targetPoint" />
          </mxGeometry>
        </mxCell>
        <mxCell id="s5f5R7RKwob3gOme2G1C-13" value="" style="html=1;whiteSpace=wrap;aspect=fixed;shape=isoRectangle;fillColor=#60a917;fontColor=#ffffff;strokeColor=#000000;" parent="1" vertex="1">
          <mxGeometry x="108" y="821" width="100" height="60" as="geometry" />
        </mxCell>
        <mxCell id="s5f5R7RKwob3gOme2G1C-14" value="&lt;font color=&quot;#000000&quot;&gt;&lt;b&gt;Notifies&lt;br&gt;for&lt;br&gt;&lt;/b&gt;&lt;/font&gt;" style="html=1;whiteSpace=wrap;aspect=fixed;shape=isoRectangle;fillColor=#60a917;fontColor=#ffffff;strokeColor=#000000;" parent="1" vertex="1">
          <mxGeometry x="115.50999999999999" y="825.5" width="84.98" height="51" as="geometry" />
        </mxCell>
        <mxCell id="s5f5R7RKwob3gOme2G1C-15" value="" style="endArrow=none;html=1;rounded=0;exitX=1;exitY=0.507;exitDx=0;exitDy=0;exitPerimeter=0;entryX=0;entryY=0.9;entryDx=0;entryDy=0;entryPerimeter=0;" parent="1" source="s5f5R7RKwob3gOme2G1C-13" target="XZoQZrsDG4vRprca0sCM-44" edge="1">
          <mxGeometry width="50" height="50" relative="1" as="geometry">
            <mxPoint x="230" y="867" as="sourcePoint" />
            <mxPoint x="288" y="850" as="targetPoint" />
          </mxGeometry>
        </mxCell>
        <mxCell id="s5f5R7RKwob3gOme2G1C-17" value="" style="endArrow=none;html=1;rounded=0;entryX=0.026;entryY=0.46;entryDx=0;entryDy=0;entryPerimeter=0;exitX=0.46;exitY=-0.006;exitDx=0;exitDy=0;exitPerimeter=0;" parent="1" source="s5f5R7RKwob3gOme2G1C-1" target="s5f5R7RKwob3gOme2G1C-10" edge="1">
          <mxGeometry width="50" height="50" relative="1" as="geometry">
            <mxPoint x="-19" y="689" as="sourcePoint" />
            <mxPoint x="78" y="605" as="targetPoint" />
            <Array as="points">
              <mxPoint x="-20" y="615" />
            </Array>
          </mxGeometry>
        </mxCell>
        <mxCell id="s5f5R7RKwob3gOme2G1C-18" value="" style="endArrow=none;html=1;rounded=0;entryX=0.46;entryY=1.017;entryDx=0;entryDy=0;entryPerimeter=0;exitX=0.043;exitY=0.546;exitDx=0;exitDy=0;exitPerimeter=0;" parent="1" source="s5f5R7RKwob3gOme2G1C-13" target="s5f5R7RKwob3gOme2G1C-1" edge="1">
          <mxGeometry width="50" height="50" relative="1" as="geometry">
            <mxPoint x="-74" y="829" as="sourcePoint" />
            <mxPoint x="-31" y="760" as="targetPoint" />
            <Array as="points">
              <mxPoint x="-17" y="854" />
            </Array>
          </mxGeometry>
        </mxCell>
        <mxCell id="s5f5R7RKwob3gOme2G1C-24" value="" style="group" parent="1" vertex="1" connectable="0">
          <mxGeometry x="-23" y="436" width="120" height="60" as="geometry" />
        </mxCell>
        <mxCell id="s5f5R7RKwob3gOme2G1C-22" value="" style="rounded=0;whiteSpace=wrap;html=1;fillColor=#1ba1e2;fontColor=#ffffff;strokeColor=#000000;" parent="s5f5R7RKwob3gOme2G1C-24" vertex="1">
          <mxGeometry width="120" height="60" as="geometry" />
        </mxCell>
        <mxCell id="s5f5R7RKwob3gOme2G1C-23" value="Subscription" style="rounded=0;whiteSpace=wrap;html=1;fillColor=#1ba1e2;fontColor=#000000;strokeColor=#000000;labelBackgroundColor=none;fontStyle=1" parent="s5f5R7RKwob3gOme2G1C-24" vertex="1">
          <mxGeometry x="5" y="5" width="110" height="50" as="geometry" />
        </mxCell>
        <mxCell id="s5f5R7RKwob3gOme2G1C-29" value="" style="endArrow=none;html=1;rounded=0;entryX=0.504;entryY=0.986;entryDx=0;entryDy=0;entryPerimeter=0;exitX=-0.001;exitY=0.092;exitDx=0;exitDy=0;exitPerimeter=0;" parent="1" source="XZoQZrsDG4vRprca0sCM-20" target="s5f5R7RKwob3gOme2G1C-35" edge="1">
          <mxGeometry width="50" height="50" relative="1" as="geometry">
            <mxPoint x="335" y="555" as="sourcePoint" />
            <mxPoint x="255.70000000000005" y="512.84" as="targetPoint" />
            <Array as="points">
              <mxPoint x="257" y="566" />
            </Array>
          </mxGeometry>
        </mxCell>
        <mxCell id="s5f5R7RKwob3gOme2G1C-30" value="1" style="text;html=1;strokeColor=none;fillColor=none;align=center;verticalAlign=middle;whiteSpace=wrap;rounded=0;" parent="1" vertex="1">
          <mxGeometry x="322.5" y="540" width="29" height="30" as="geometry" />
        </mxCell>
        <mxCell id="s5f5R7RKwob3gOme2G1C-31" value="1" style="text;html=1;strokeColor=none;fillColor=none;align=center;verticalAlign=middle;whiteSpace=wrap;rounded=0;" parent="1" vertex="1">
          <mxGeometry x="323" y="567" width="29" height="30" as="geometry" />
        </mxCell>
        <mxCell id="s5f5R7RKwob3gOme2G1C-35" value="" style="html=1;whiteSpace=wrap;aspect=fixed;shape=isoRectangle;fillColor=#60a917;fontColor=#ffffff;strokeColor=#000000;" parent="1" vertex="1">
          <mxGeometry x="206" y="455" width="100" height="60" as="geometry" />
        </mxCell>
        <mxCell id="s5f5R7RKwob3gOme2G1C-36" value="&lt;font color=&quot;#000000&quot;&gt;&lt;b&gt;Subscribes&lt;/b&gt;&lt;/font&gt;" style="html=1;whiteSpace=wrap;aspect=fixed;shape=isoRectangle;fillColor=#60a917;fontColor=#ffffff;strokeColor=#000000;" parent="1" vertex="1">
          <mxGeometry x="213.51" y="459.5" width="84.98" height="51" as="geometry" />
        </mxCell>
        <mxCell id="s5f5R7RKwob3gOme2G1C-37" value="" style="html=1;whiteSpace=wrap;aspect=fixed;shape=isoRectangle;fillColor=#60a917;fontColor=#ffffff;strokeColor=#000000;" parent="1" vertex="1">
          <mxGeometry x="93" y="515" width="100" height="60" as="geometry" />
        </mxCell>
        <mxCell id="s5f5R7RKwob3gOme2G1C-38" value="&lt;font color=&quot;#000000&quot;&gt;&lt;b&gt;Receives&lt;br&gt;Sub&lt;br&gt;&lt;/b&gt;&lt;/font&gt;" style="html=1;whiteSpace=wrap;aspect=fixed;shape=isoRectangle;fillColor=#60a917;fontColor=#ffffff;strokeColor=#000000;" parent="1" vertex="1">
          <mxGeometry x="100.50999999999999" y="519.5" width="84.98" height="51" as="geometry" />
        </mxCell>
        <mxCell id="s5f5R7RKwob3gOme2G1C-39" value="" style="endArrow=none;html=1;rounded=0;exitX=0.997;exitY=0.493;exitDx=0;exitDy=0;exitPerimeter=0;entryX=0.002;entryY=0.476;entryDx=0;entryDy=0;entryPerimeter=0;" parent="1" source="s5f5R7RKwob3gOme2G1C-37" target="XZoQZrsDG4vRprca0sCM-20" edge="1">
          <mxGeometry width="50" height="50" relative="1" as="geometry">
            <mxPoint x="176" y="600" as="sourcePoint" />
            <mxPoint x="312" y="590" as="targetPoint" />
            <Array as="points">
              <mxPoint x="226" y="545" />
              <mxPoint x="227" y="589" />
            </Array>
          </mxGeometry>
        </mxCell>
        <mxCell id="s5f5R7RKwob3gOme2G1C-40" value="" style="endArrow=none;html=1;rounded=0;entryX=0.463;entryY=0.046;entryDx=0;entryDy=0;entryPerimeter=0;exitX=0.5;exitY=0;exitDx=0;exitDy=0;" parent="1" source="s5f5R7RKwob3gOme2G1C-22" target="s5f5R7RKwob3gOme2G1C-35" edge="1">
          <mxGeometry width="50" height="50" relative="1" as="geometry">
            <mxPoint x="181" y="439" as="sourcePoint" />
            <mxPoint x="217" y="439" as="targetPoint" />
            <Array as="points">
              <mxPoint x="37" y="420" />
              <mxPoint x="251" y="422" />
            </Array>
          </mxGeometry>
        </mxCell>
        <mxCell id="s5f5R7RKwob3gOme2G1C-41" value="" style="endArrow=none;html=1;rounded=0;exitX=1.004;exitY=0.642;exitDx=0;exitDy=0;exitPerimeter=0;entryX=0.46;entryY=0.054;entryDx=0;entryDy=0;entryPerimeter=0;" parent="1" source="s5f5R7RKwob3gOme2G1C-22" target="s5f5R7RKwob3gOme2G1C-37" edge="1">
          <mxGeometry width="50" height="50" relative="1" as="geometry">
            <mxPoint x="110" y="484" as="sourcePoint" />
            <mxPoint x="137" y="474" as="targetPoint" />
            <Array as="points">
              <mxPoint x="138" y="475" />
            </Array>
          </mxGeometry>
        </mxCell>
        <mxCell id="esMWrdwkYRZb5IMy4d5i-1" value="" style="endArrow=none;html=1;rounded=0;exitX=1.001;exitY=0.825;exitDx=0;exitDy=0;exitPerimeter=0;" parent="1" source="esMWrdwkYRZb5IMy4d5i-3" edge="1">
          <mxGeometry width="50" height="50" relative="1" as="geometry">
            <mxPoint x="978.52" y="807.6959999999999" as="sourcePoint" />
            <mxPoint x="1101" y="794" as="targetPoint" />
            <Array as="points">
              <mxPoint x="1101" y="807" />
            </Array>
          </mxGeometry>
        </mxCell>
        <mxCell id="esMWrdwkYRZb5IMy4d5i-2" value="" style="endArrow=none;html=1;rounded=0;entryX=0.529;entryY=0.963;entryDx=0;entryDy=0;entryPerimeter=0;exitX=1;exitY=0.883;exitDx=0;exitDy=0;exitPerimeter=0;" parent="1" source="esMWrdwkYRZb5IMy4d5i-3" target="hw7H4sjWpk08k4v9Mgxn-9" edge="1">
          <mxGeometry width="50" height="50" relative="1" as="geometry">
            <mxPoint x="979" y="810" as="sourcePoint" />
            <mxPoint x="1108.51" y="793" as="targetPoint" />
            <Array as="points">
              <mxPoint x="1104" y="810" />
            </Array>
          </mxGeometry>
        </mxCell>
        <mxCell id="esMWrdwkYRZb5IMy4d5i-3" value="" style="rounded=0;whiteSpace=wrap;html=1;fillColor=#1ba1e2;fontColor=#ffffff;strokeColor=#000000;" parent="1" vertex="1">
          <mxGeometry x="860" y="757" width="120" height="60" as="geometry" />
        </mxCell>
        <mxCell id="esMWrdwkYRZb5IMy4d5i-4" value="Comment" style="rounded=0;whiteSpace=wrap;html=1;fillColor=#1ba1e2;fontColor=#000000;strokeColor=#000000;labelBackgroundColor=none;fontStyle=1" parent="1" vertex="1">
          <mxGeometry x="865" y="762" width="110" height="50" as="geometry" />
        </mxCell>
        <mxCell id="esMWrdwkYRZb5IMy4d5i-6" value="" style="html=1;whiteSpace=wrap;aspect=fixed;shape=isoRectangle;fillColor=#60a917;fontColor=#ffffff;strokeColor=#000000;" parent="1" vertex="1">
          <mxGeometry x="613" y="777" width="100" height="60" as="geometry" />
        </mxCell>
        <mxCell id="esMWrdwkYRZb5IMy4d5i-7" value="&lt;font color=&quot;#000000&quot;&gt;&lt;b&gt;Has&lt;/b&gt;&lt;/font&gt;" style="html=1;whiteSpace=wrap;aspect=fixed;shape=isoRectangle;fillColor=#60a917;fontColor=#ffffff;strokeColor=#000000;" parent="1" vertex="1">
          <mxGeometry x="620.51" y="781.5" width="84.98" height="51" as="geometry" />
        </mxCell>
        <mxCell id="esMWrdwkYRZb5IMy4d5i-8" value="" style="endArrow=none;html=1;rounded=0;entryX=0;entryY=0.917;entryDx=0;entryDy=0;entryPerimeter=0;exitX=0.922;exitY=0.573;exitDx=0;exitDy=0;exitPerimeter=0;" parent="1" source="esMWrdwkYRZb5IMy4d5i-6" target="esMWrdwkYRZb5IMy4d5i-3" edge="1">
          <mxGeometry width="50" height="50" relative="1" as="geometry">
            <mxPoint x="708" y="811" as="sourcePoint" />
            <mxPoint x="784" y="778.5" as="targetPoint" />
          </mxGeometry>
        </mxCell>
        <mxCell id="esMWrdwkYRZb5IMy4d5i-9" value="" style="endArrow=none;html=1;rounded=0;exitX=1.004;exitY=0.18;exitDx=0;exitDy=0;exitPerimeter=0;entryX=0;entryY=0.5;entryDx=0;entryDy=0;entryPerimeter=0;" parent="1" source="XZoQZrsDG4vRprca0sCM-44" target="esMWrdwkYRZb5IMy4d5i-6" edge="1">
          <mxGeometry width="50" height="50" relative="1" as="geometry">
            <mxPoint x="518" y="817" as="sourcePoint" />
            <mxPoint x="568" y="767" as="targetPoint" />
          </mxGeometry>
        </mxCell>
        <mxCell id="esMWrdwkYRZb5IMy4d5i-10" value="1" style="text;html=1;strokeColor=none;fillColor=none;align=center;verticalAlign=middle;whiteSpace=wrap;rounded=0;" parent="1" vertex="1">
          <mxGeometry x="470" y="777" width="36" height="30" as="geometry" />
        </mxCell>
        <mxCell id="esMWrdwkYRZb5IMy4d5i-11" value="" style="endArrow=none;html=1;rounded=0;exitX=0.997;exitY=0.501;exitDx=0;exitDy=0;exitPerimeter=0;" parent="1" source="esMWrdwkYRZb5IMy4d5i-6" edge="1">
          <mxGeometry width="50" height="50" relative="1" as="geometry">
            <mxPoint x="776" y="788" as="sourcePoint" />
            <mxPoint x="860" y="808" as="targetPoint" />
          </mxGeometry>
        </mxCell>
        <mxCell id="esMWrdwkYRZb5IMy4d5i-12" value="" style="html=1;whiteSpace=wrap;aspect=fixed;shape=isoRectangle;fillColor=#60a917;fontColor=#ffffff;strokeColor=#000000;" parent="1" vertex="1">
          <mxGeometry x="550" y="714" width="100" height="60" as="geometry" />
        </mxCell>
        <mxCell id="esMWrdwkYRZb5IMy4d5i-13" value="&lt;font color=&quot;#000000&quot;&gt;&lt;b&gt;Comments&lt;/b&gt;&lt;/font&gt;" style="html=1;whiteSpace=wrap;aspect=fixed;shape=isoRectangle;fillColor=#60a917;fontColor=#ffffff;strokeColor=#000000;" parent="1" vertex="1">
          <mxGeometry x="557.51" y="718.5" width="84.98" height="51" as="geometry" />
        </mxCell>
        <mxCell id="esMWrdwkYRZb5IMy4d5i-14" value="" style="endArrow=none;html=1;rounded=0;exitX=0.979;exitY=0.485;exitDx=0;exitDy=0;exitPerimeter=0;entryX=0.004;entryY=0.108;entryDx=0;entryDy=0;entryPerimeter=0;" parent="1" source="esMWrdwkYRZb5IMy4d5i-12" target="esMWrdwkYRZb5IMy4d5i-3" edge="1">
          <mxGeometry width="50" height="50" relative="1" as="geometry">
            <mxPoint x="702" y="727" as="sourcePoint" />
            <mxPoint x="752" y="677" as="targetPoint" />
          </mxGeometry>
        </mxCell>
        <mxCell id="esMWrdwkYRZb5IMy4d5i-15" value="" style="endArrow=none;html=1;rounded=0;exitX=0.946;exitY=0.548;exitDx=0;exitDy=0;exitPerimeter=0;entryX=0.002;entryY=0.186;entryDx=0;entryDy=0;entryPerimeter=0;" parent="1" source="esMWrdwkYRZb5IMy4d5i-12" target="esMWrdwkYRZb5IMy4d5i-3" edge="1">
          <mxGeometry width="50" height="50" relative="1" as="geometry">
            <mxPoint x="702" y="727" as="sourcePoint" />
            <mxPoint x="752" y="677" as="targetPoint" />
          </mxGeometry>
        </mxCell>
        <mxCell id="esMWrdwkYRZb5IMy4d5i-16" value="N" style="text;html=1;strokeColor=none;fillColor=none;align=center;verticalAlign=middle;whiteSpace=wrap;rounded=0;" parent="1" vertex="1">
          <mxGeometry x="827" y="735" width="36" height="30" as="geometry" />
        </mxCell>
      </root>
    </mxGraphModel>
  </diagram>
</mxfile>
